<svg id="visual" viewBox="0 0 1920 1080" width="1920" height="1080" xmlns="http://www.w3.org/2000/svg" xmlns:xlink="http://www.w3.org/1999/xlink" version="1.1"><rect x="0" y="0" width="1920" height="1080" fill="#FEFEFE"></rect><path d="M0 723L45.7 723.8C91.3 724.7 182.7 726.3 274.2 714C365.7 701.7 457.3 675.3 548.8 675.3C640.3 675.3 731.7 701.7 823 720.8C914.3 740 1005.7 752 1097 751.3C1188.3 750.7 1279.7 737.3 1371.2 726.2C1462.7 715 1554.3 706 1645.8 704.8C1737.3 703.7 1828.7 710.3 1874.3 713.7L1920 717L1920 1081L1874.3 1081C1828.7 1081 1737.3 1081 1645.8 1081C1554.3 1081 1462.7 1081 1371.2 1081C1279.7 1081 1188.3 1081 1097 1081C1005.7 1081 914.3 1081 823 1081C731.7 1081 640.3 1081 548.8 1081C457.3 1081 365.7 1081 274.2 1081C182.7 1081 91.3 1081 45.7 1081L0 1081Z" fill="#6370e4"></path><path d="M0 763L45.7 768C91.3 773 182.7 783 274.2 796.7C365.7 810.3 457.3 827.7 548.8 836.2C640.3 844.7 731.7 844.3 823 824.8C914.3 805.3 1005.7 766.7 1097 752.2C1188.3 737.7 1279.7 747.3 1371.2 752.8C1462.7 758.3 1554.3 759.7 1645.8 770.7C1737.3 781.7 1828.7 802.3 1874.3 812.7L1920 823L1920 1081L1874.3 1081C1828.7 1081 1737.3 1081 1645.8 1081C1554.3 1081 1462.7 1081 1371.2 1081C1279.7 1081 1188.3 1081 1097 1081C1005.7 1081 914.3 1081 823 1081C731.7 1081 640.3 1081 548.8 1081C457.3 1081 365.7 1081 274.2 1081C182.7 1081 91.3 1081 45.7 1081L0 1081Z" fill="#5a65cf"></path><path d="M0 817L45.7 823.5C91.3 830 182.7 843 274.2 849C365.7 855 457.3 854 548.8 857C640.3 860 731.7 867 823 865.8C914.3 864.7 1005.7 855.3 1097 846.3C1188.3 837.3 1279.7 828.7 1371.2 833.5C1462.7 838.3 1554.3 856.7 1645.8 859.8C1737.3 863 1828.7 851 1874.3 845L1920 839L1920 1081L1874.3 1081C1828.7 1081 1737.3 1081 1645.8 1081C1554.3 1081 1462.7 1081 1371.2 1081C1279.7 1081 1188.3 1081 1097 1081C1005.7 1081 914.3 1081 823 1081C731.7 1081 640.3 1081 548.8 1081C457.3 1081 365.7 1081 274.2 1081C182.7 1081 91.3 1081 45.7 1081L0 1081Z" fill="#515bba"></path><path d="M0 876L45.7 879.7C91.3 883.3 182.7 890.7 274.2 905.2C365.7 919.7 457.3 941.3 548.8 938.2C640.3 935 731.7 907 823 892.3C914.3 877.7 1005.7 876.3 1097 877.2C1188.3 878 1279.7 881 1371.2 881.8C1462.7 882.7 1554.3 881.3 1645.8 884.8C1737.3 888.3 1828.7 896.7 1874.3 900.8L1920 905L1920 1081L1874.3 1081C1828.7 1081 1737.3 1081 1645.8 1081C1554.3 1081 1462.7 1081 1371.2 1081C1279.7 1081 1188.3 1081 1097 1081C1005.7 1081 914.3 1081 823 1081C731.7 1081 640.3 1081 548.8 1081C457.3 1081 365.7 1081 274.2 1081C182.7 1081 91.3 1081 45.7 1081L0 1081Z" fill="#4851a6"></path><path d="M0 951L45.7 960C91.3 969 182.7 987 274.2 987.5C365.7 988 457.3 971 548.8 964.7C640.3 958.3 731.7 962.7 823 973.5C914.3 984.3 1005.7 1001.7 1097 1008.3C1188.3 1015 1279.7 1011 1371.2 1010C1462.7 1009 1554.3 1011 1645.8 1004C1737.3 997 1828.7 981 1874.3 973L1920 965L1920 1081L1874.3 1081C1828.7 1081 1737.3 1081 1645.8 1081C1554.3 1081 1462.7 1081 1371.2 1081C1279.7 1081 1188.3 1081 1097 1081C1005.7 1081 914.3 1081 823 1081C731.7 1081 640.3 1081 548.8 1081C457.3 1081 365.7 1081 274.2 1081C182.7 1081 91.3 1081 45.7 1081L0 1081Z" fill="#3f4792"></path></svg>